<?xml version="1.0" encoding="utf-8"?>
<!-- Generator: Adobe Illustrator 16.0.0, SVG Export Plug-In . SVG Version: 6.00 Build 0)  -->
<!DOCTYPE svg PUBLIC "-//W3C//DTD SVG 1.1//EN" "http://www.w3.org/Graphics/SVG/1.1/DTD/svg11.dtd">
<svg version="1.1" id="Layer_1" xmlns="http://www.w3.org/2000/svg" xmlns:xlink="http://www.w3.org/1999/xlink" x="0px" y="0px"
	 width="46px" height="46px" viewBox="0 0 46 46" enable-background="new 0 0 46 46" xml:space="preserve">
<path fill="#FCFCFC" d="M22.569,0C10.115,0,0.02,10.096,0.02,22.549C0.02,35.002,10.115,45.1,22.569,45.1
	c12.455,0,22.55-10.098,22.55-22.551C45.119,10.096,35.023,0,22.569,0z M29.109,13.368c-1.221,0-2.539,0-3.164,0
	c-0.627,0-1.26,0.654-1.26,1.141c0,0.484,0,3.254,0,3.254s3.91,0,4.418,0c-0.178,2.496-0.541,4.777-0.541,4.777h-3.898v14.146h-5.81
	V22.54h-2.827v-4.76h2.827c0,0,0-3.18,0-3.891c0-0.713-0.143-5.477,5.953-5.477c0.817,0,2.672,0,4.303,0
	C29.109,10.481,29.109,12.719,29.109,13.368z"/>
<path fill="none" d="M22.553,0C10.098,0,0,10.098,0,22.553c0,12.456,10.098,22.553,22.553,22.553
	c12.457,0,22.552-10.097,22.552-22.553C45.105,10.098,35.01,0,22.553,0z M32.221,23.059c-2.078,8.423-16.015,11.998-22.426,3.25
	c2.455,2.347,6.731,2.553,9.444-0.25c-1.591,0.23-2.747-1.33-0.794-2.173c-1.757,0.191-2.733-0.743-3.135-1.538
	c0.412-0.431,0.866-0.631,1.745-0.689c-1.923-0.455-2.634-1.396-2.851-2.539c0.534-0.127,1.202-0.237,1.567-0.188
	c-1.686-0.882-2.271-2.208-2.179-3.205c3.011,1.119,4.929,2.017,6.533,2.878c0.572,0.305,1.209,0.854,1.929,1.552
	c0.916-2.423,2.047-4.92,3.986-6.159c-0.032,0.281-0.183,0.542-0.382,0.757c0.55-0.5,1.264-0.844,1.988-0.943
	c-0.082,0.545-0.867,0.852-1.34,1.031c0.357-0.112,2.266-0.963,2.473-0.478c0.246,0.551-1.315,0.806-1.581,0.901
	c-0.198,0.066-0.396,0.139-0.593,0.218c2.418-0.241,4.727,1.755,5.398,4.231c0.049,0.179,0.098,0.376,0.139,0.584
	c0.885,0.33,2.486-0.017,3.004-0.333c-0.373,0.883-1.344,1.534-2.774,1.652c0.688,0.286,1.989,0.444,2.886,0.292
	C34.689,22.52,33.775,23.071,32.221,23.059z"/>
</svg>
